<?xml version="1.0" encoding="utf-8"?>
<!-- Generator: Adobe Illustrator 16.0.0, SVG Export Plug-In . SVG Version: 6.00 Build 0)  -->
<!DOCTYPE svg PUBLIC "-//W3C//DTD SVG 1.1//EN" "http://www.w3.org/Graphics/SVG/1.1/DTD/svg11.dtd">
<svg version="1.1" id="Ñëîé_1" xmlns="http://www.w3.org/2000/svg" xmlns:xlink="http://www.w3.org/1999/xlink" x="0px" y="0px"
	 width="841px" height="353px" viewBox="0 0 841 353" style="enable-background:new 0 0 841 353;" xml:space="preserve">
<g>
	<path style="fill:#D31E44;" d="M111,98.5c-42.5,0-77,34.5-77,77s34.5,77,77,77s77-34.5,77-77S153.6,98.5,111,98.5z M111,207.5
		c-17.7,0-32-14.3-32-32s14.3-32,32-32c17.7,0,32,14.3,32,32S128.7,207.5,111,207.5z"/>
	<path style="fill:#1D1D1D;" d="M205.2,108.5c0,0,30.5,0.8,31.9,0.8s51.5,63.3,51.5,63.3l0.2-30v-34.1h39.9v137.1l-34.9,0.3
		L246,187.1v58.3l-40.9,0.2V108.5z"/>
	<path style="fill:#1D1D1D;" d="M535.2,108.5c0,0,30.5,0.8,31.9,0.8c1.3,0,51.5,63.3,51.5,63.3l0.2-30v-34.1h39.9v137.1l-34.9,0.3
		L576,187.1v58.3l-40.9,0.2V108.5z"/>
	<path style="fill:#1D1D1D;" d="M350.7,108.5H393v102h60.7v35.1H350.7V108.5z"/>
	<path style="fill:#1D1D1D;" d="M471.7,108.5h42.2v137.1h-42.2V108.5z"/>
	<path style="fill:#1D1D1D;" d="M681.3,108.5h113.5v35.1h-71.2v17.1h64.7v32.6h-64.7v17.1h73.3v35.1H681.3V108.5z"/>
	
		<rect x="19.6" y="42.7" transform="matrix(0.8714 -0.4906 0.4906 0.8714 -19.86 50.7083)" style="fill:#D31E44;" width="134.3" height="41.1"/>
	<g>
		<path style="fill:#1D1D1D;" d="M46.8,290h23.6v3h-20v13.4h17.8v3H50.3v17.7h-3.5V290z"/>
		<path style="fill:#1D1D1D;" d="M157.8,289.2c11.6,0,17.5,9.2,17.5,19.3c0,10.1-5.8,19.3-17.5,19.3c-11.7,0-17.5-9.2-17.5-19.3
			C140.3,298.4,146.1,289.2,157.8,289.2z M157.8,324.9c9.8,0,13.9-8.2,13.9-16.3s-4.2-16.3-13.9-16.3c-9.8,0-14,8.2-14,16.3
			S148,324.9,157.8,324.9z"/>
		<path style="fill:#1D1D1D;" d="M248.3,290h17c6.1,0,11.3,3,11.3,9.7c0,4.7-2.4,8.5-7.2,9.5v0.1c4.8,0.6,6.2,4,6.5,8.4
			c0.2,2.5,0.2,7.6,1.7,9.5h-3.9c-0.9-1.5-0.9-4.2-1-5.8c-0.3-5.2-0.7-11-7.4-10.7h-13.4v16.5h-3.5V290z M251.9,307.6h13.2
			c4.3,0,8-2.7,8-7.2c0-4.5-2.7-7.4-8-7.4h-13.2V307.6z"/>
		<path style="fill:#1D1D1D;" d="M350.5,290h5.2l12.8,32.6l12.8-32.6h5.2v37.1H383V295h-0.1l-12.7,32.1h-3.3L354.1,295H354v32.1
			h-3.5V290z"/>
		<path style="fill:#1D1D1D;" d="M472.3,290h4l14.6,37.1H487l-4.5-11.5h-16.9l-4.5,11.5h-3.8L472.3,290z M466.7,312.6h14.6l-7.2-19
			L466.7,312.6z"/>
		<path style="fill:#1D1D1D;" d="M561.7,290h16.5c6.7,0,11,3.9,11,10.6c0,6.7-4.4,10.6-11,10.6h-12.9v15.9h-3.5V290z M565.3,308.2
			h12.2c4.9,0,8.3-2.5,8.3-7.6c0-5.1-3.4-7.6-8.3-7.6h-12.2V308.2z"/>
		<path style="fill:#1D1D1D;" d="M662.1,290h17c6.1,0,11.3,3,11.3,9.7c0,4.7-2.4,8.5-7.2,9.5v0.1c4.8,0.6,6.2,4,6.5,8.4
			c0.2,2.5,0.2,7.6,1.7,9.5h-3.9c-0.9-1.5-0.9-4.2-1-5.8c-0.3-5.2-0.7-11-7.4-10.7h-13.4v16.5h-3.5V290z M665.6,307.6h13.2
			c4.3,0,8-2.7,8-7.2c0-4.5-2.7-7.4-8-7.4h-13.2V307.6z"/>
		<path style="fill:#1D1D1D;" d="M779.8,289.2c11.6,0,17.5,9.2,17.5,19.3c0,10.1-5.8,19.3-17.5,19.3c-11.7,0-17.5-9.2-17.5-19.3
			C762.3,298.4,768.1,289.2,779.8,289.2z M779.8,324.9c9.8,0,13.9-8.2,13.9-16.3s-4.2-16.3-13.9-16.3c-9.8,0-14,8.2-14,16.3
			S770,324.9,779.8,324.9z"/>
	</g>
</g>
</svg>
